<?xml version="1.0" encoding="utf-8"?>
<!-- Generator: Adobe Illustrator 23.0.0, SVG Export Plug-In . SVG Version: 6.00 Build 0)  -->
<svg version="1.1" id="Ñëîé_1" xmlns="http://www.w3.org/2000/svg" xmlns:xlink="http://www.w3.org/1999/xlink" x="0px" y="0px"
	 viewBox="0 0 600 600" style="enable-background:new 0 0 600 600;" xml:space="preserve">
<style type="text/css">
	.st0{fill:#310216;}
	.st1{fill:url(#SVGID_1_);}
	.st2{fill:#F5F5F5;}
	.st3{fill:url(#SVGID_2_);}
	.st4{fill:url(#SVGID_3_);}
	.st5{fill:url(#SVGID_4_);}
	.st6{fill:url(#SVGID_5_);}
	.st7{fill:url(#SVGID_6_);}
	.st8{fill:url(#SVGID_7_);}
	.st9{fill:url(#SVGID_8_);}
	.st10{fill:url(#SVGID_9_);}
</style>
<text transform="matrix(1 0 0 1 -194.3848 113.9229)" style="font-family:'MyriadPro-Regular'; font-size:12px;">LA CAVE</text>
<g>
	<g>
		<circle class="st0" cx="300" cy="264.34" r="237.62"/>
		<linearGradient id="SVGID_1_" gradientUnits="userSpaceOnUse" x1="-91.677" y1="-191.1446" x2="464.0139" y2="455.0653">
			<stop  offset="0" style="stop-color:#FFFFFF"/>
			<stop  offset="1" style="stop-color:#000000"/>
		</linearGradient>
		<path class="st1" d="M537.62,264.34c0,125.82-97.81,228.84-221.57,237.06c-5.31,0.38-10.64,0.55-16.04,0.55
			s-10.79-0.18-16.09-0.55C160.17,493.12,62.38,390.16,62.38,264.34C62.38,133.11,168.77,26.72,300,26.72
			S537.62,133.11,537.62,264.34z"/>
		<path class="st2" d="M442.67,288.88c-2.82,44.68-25.22,86.09-61.5,112.87l-57.38,42.37c0,0-6.91,28.51-7.74,57.28
			c-5.31,0.38-10.64,0.55-16.04,0.55s-10.79-0.18-16.09-0.55c-0.83-28.77-7.74-57.28-7.74-57.28l-58.44-42.37
			c-1.38-1.01-2.74-2.06-4.1-3.12c-41.74-33.06-62.01-86.37-55.14-139.15l17.55-134.7h246.82l19.13,146.89
			C442.72,277.36,443.02,283.12,442.67,288.88z"/>
		<linearGradient id="SVGID_2_" gradientUnits="userSpaceOnUse" x1="279.2776" y1="251.4382" x2="350.9393" y2="399.7906">
			<stop  offset="0" style="stop-color:#B91845"/>
			<stop  offset="1" style="stop-color:#78002C"/>
		</linearGradient>
		<path class="st3" d="M184.78,263.89c13.74-14.61,31.11-27.09,52.35-29.72c36.37-4.51,56.13,23.29,104.35,32.69
			c28.8,5.61,54.77,2.13,74.65-2.96c0.44,3.41,0.89,6.82,1.33,10.23c5.7,43.81-11.12,88.06-45.77,115.51
			c-1.13,0.88-34.75,25.74-34.75,25.74c-10.56,7.8-23.35,12.01-36.48,12.01c-13.13,0-25.91-4.21-36.47-12.01l-31.37-23.16
			c-30.12-22.23-48.72-56.61-51.05-93.7c-0.29-4.78-0.04-9.56,0.56-14.28L184.78,263.89z"/>
		<linearGradient id="SVGID_3_" gradientUnits="userSpaceOnUse" x1="426.7538" y1="-333.1118" x2="275.2243" y2="411.5995">
			<stop  offset="0" style="stop-color:#FFFFFF"/>
			<stop  offset="1" style="stop-color:#B00631"/>
		</linearGradient>
		<path class="st4" d="M415.21,263.89c-13.74-14.61-31.11-27.09-52.35-29.72c-36.37-4.51-56.13,23.29-104.35,32.69
			c-28.8,5.61-54.77,2.13-74.65-2.96c-0.44,3.41-0.89,6.82-1.33,10.23c-5.7,43.81,11.12,88.06,45.77,115.51
			c1.13,0.88,34.75,25.74,34.75,25.74c10.56,7.8,23.35,12.01,36.48,12.01c13.13,0,25.91-4.21,36.47-12.01l31.37-23.16
			c30.12-22.23,48.72-56.61,51.05-93.7c0.29-4.78,0.04-9.56-0.56-14.28L415.21,263.89z"/>
	</g>
	<g>
		<linearGradient id="SVGID_4_" gradientUnits="userSpaceOnUse" x1="165.5996" y1="526.4266" x2="198.6611" y2="526.4266">
			<stop  offset="0" style="stop-color:#B91845"/>
			<stop  offset="1" style="stop-color:#78002C"/>
		</linearGradient>
		<path class="st5" d="M191.23,553.24c-1.66-0.84-3.8-1.97-6.43-3.4c-3.44-1.84-5.57-2.98-6.41-3.43l-8.6-4.5
			c-0.88-0.42-2.1-1.09-3.68-2.01c-0.51-0.38-0.64-0.82-0.38-1.32c1.07-2.1,2.7-5.24,4.89-9.4c2.19-4.16,3.82-7.3,4.89-9.4
			c1.13-2.24,2.77-5.63,4.89-10.17c2.13-4.54,3.76-7.93,4.89-10.17c0.21-0.42,0.61-0.49,1.19-0.2c0.58,0.29,1.43,0.76,2.55,1.4
			c1.12,0.64,1.96,1.1,2.52,1.38c0.64,0.32,1.6,0.77,2.89,1.34c1.29,0.57,2.25,1.01,2.89,1.34c0.29,0.15,0.33,0.4,0.13,0.76
			l-0.22,0.36c-2.07,3.51-5.09,8.83-9.07,15.97l-3.9,7.63c-1.25,2.47-2.16,4.28-2.71,5.43c-0.1,0.24-0.2,0.48-0.29,0.72
			s-0.03,0.46,0.21,0.65c0.02,0.01,0.27,0.14,0.75,0.38c1.74,0.88,4.39,2.11,7.94,3.68c3.56,1.57,6.21,2.8,7.94,3.68
			c0.52,0.26,0.67,0.62,0.44,1.06c-1.67,3.3-3.36,6.03-5.05,8.18c-0.35,0.45-0.71,0.65-1.06,0.59
			C192.33,553.77,191.92,553.59,191.23,553.24z"/>
		<linearGradient id="SVGID_5_" gradientUnits="userSpaceOnUse" x1="199.5183" y1="543.4866" x2="243.238" y2="543.4866">
			<stop  offset="0" style="stop-color:#B91845"/>
			<stop  offset="1" style="stop-color:#78002C"/>
		</linearGradient>
		<path class="st6" d="M243.2,569.18c-0.11,0.37-0.45,0.55-1.01,0.54c-0.67-0.02-2.62-0.53-5.85-1.51c-2.96-0.9-4.84-1.56-5.64-1.99
			c-0.66-0.36-0.96-0.96-0.91-1.8c0.2-3.2,0.14-4.96-0.19-5.28c-0.29-0.25-3.04-1.16-8.26-2.75c-3.52-1.07-5.42-1.55-5.71-1.43
			c-0.45,0.22-1.18,1.21-2.19,2.96c-0.92,1.6-1.68,2.39-2.28,2.36c-0.75-0.05-3.14-0.68-7.16-1.91c-3.17-0.96-4.66-1.75-4.48-2.35
			c0.16-0.54,4.52-6.44,13.06-17.71c9.25-12.18,14.3-18.89,15.15-20.13c0.49-0.71,0.9-1.02,1.23-0.92c0.56,0.17,1.41,0.49,2.55,0.94
			c1.14,0.46,2,0.78,2.58,0.95c0.56,0.17,1.39,0.38,2.5,0.64c1.11,0.26,1.93,0.47,2.47,0.63c0.39,0.12,0.65,0.57,0.77,1.36
			c0.35,2.48,1.04,10.84,2.08,25.06C242.94,561.18,243.37,568.62,243.2,569.18z M229.79,534.19c-0.71,0.78-2.05,2.53-4.01,5.26
			c-2.1,2.89-3.24,4.61-3.41,5.17c-0.11,0.37,0.44,0.77,1.67,1.19c0.63,0.24,1.68,0.58,3.15,1.03c1.37,0.42,2.17,0.48,2.42,0.19
			c0.07-0.09,0.14-0.23,0.19-0.42c0.21-0.68,0.3-2.71,0.29-6.09C230.08,537.26,229.98,535.15,229.79,534.19z"/>
		<linearGradient id="SVGID_6_" gradientUnits="userSpaceOnUse" x1="269.7141" y1="552.0833" x2="309.4882" y2="552.0833">
			<stop  offset="0" style="stop-color:#B91845"/>
			<stop  offset="1" style="stop-color:#78002C"/>
		</linearGradient>
		<path class="st7" d="M308.17,568.2c-0.01,0.35-0.26,0.79-0.74,1.33c-4.18,4.56-9.57,6.71-16.16,6.42
			c-6.75-0.29-12.12-2.83-16.11-7.61c-3.9-4.63-5.7-10.34-5.4-17.13c0.28-6.57,2.52-12.06,6.72-16.48
			c4.38-4.62,9.79-6.79,16.23-6.52c7,0.3,12.4,2.69,16.2,7.16c0.41,0.49,0.61,0.92,0.59,1.29c-0.02,0.41-0.83,1.9-2.45,4.48
			c-1.62,2.57-2.63,4.01-3.03,4.32c-0.18,0.17-0.4,0.24-0.66,0.23c-0.11,0-0.63-0.46-1.57-1.37c-1.12-1.09-2.23-1.95-3.33-2.58
			c-1.67-0.94-3.43-1.45-5.26-1.53c-3.18-0.14-5.77,0.94-7.77,3.24c-1.85,2.13-2.84,4.82-2.98,8.06c-0.14,3.29,0.62,6.08,2.27,8.38
			c1.8,2.5,4.29,3.82,7.47,3.96c1.88,0.08,3.68-0.25,5.4-1c1.13-0.49,2.28-1.2,3.47-2.13c0.99-0.78,1.53-1.17,1.64-1.16
			c0.22,0.01,0.43,0.14,0.63,0.38c0.33,0.4,1.21,1.8,2.65,4.17C307.44,566.6,308.18,567.96,308.17,568.2z"/>
		<linearGradient id="SVGID_7_" gradientUnits="userSpaceOnUse" x1="313.5538" y1="550.6667" x2="358.7271" y2="550.6667">
			<stop  offset="0" style="stop-color:#B91845"/>
			<stop  offset="1" style="stop-color:#78002C"/>
		</linearGradient>
		<path class="st8" d="M358.72,568.48c0.05,0.39-0.18,0.69-0.69,0.92c-0.62,0.26-2.6,0.62-5.95,1.08c-3.07,0.42-5.05,0.61-5.95,0.56
			c-0.75-0.05-1.28-0.47-1.58-1.26c-1.15-2.99-1.95-4.56-2.39-4.72c-0.36-0.1-3.25,0.22-8.65,0.96c-3.64,0.5-5.57,0.87-5.78,1.09
			c-0.32,0.39-0.57,1.6-0.75,3.61c-0.16,1.84-0.52,2.87-1.08,3.1c-0.71,0.27-3.14,0.69-7.3,1.27c-3.28,0.45-4.96,0.37-5.05-0.25
			c-0.08-0.56,1.4-7.74,4.44-21.55c3.29-14.94,5.07-23.14,5.33-24.62c0.14-0.85,0.39-1.3,0.73-1.35c0.58-0.08,1.48-0.15,2.71-0.21
			c1.23-0.06,2.14-0.13,2.74-0.21c0.58-0.08,1.43-0.23,2.54-0.46c1.12-0.23,1.95-0.38,2.51-0.46c0.41-0.06,0.83,0.25,1.27,0.91
			c1.36,2.11,5.49,9.4,12.39,21.89C355.13,561.33,358.64,567.9,358.72,568.48z M331.89,542.33c-0.32,1.01-0.8,3.16-1.44,6.46
			c-0.7,3.5-1.01,5.55-0.93,6.12c0.05,0.39,0.73,0.51,2.02,0.38c0.67-0.05,1.77-0.18,3.29-0.39c1.42-0.2,2.17-0.47,2.28-0.84
			c0.03-0.11,0.03-0.27,0-0.46c-0.1-0.71-0.86-2.59-2.29-5.65C333.43,545,332.45,543.12,331.89,542.33z"/>
		<linearGradient id="SVGID_8_" gradientUnits="userSpaceOnUse" x1="352.376" y1="537.1542" x2="394.4126" y2="537.1542">
			<stop  offset="0" style="stop-color:#B91845"/>
			<stop  offset="1" style="stop-color:#78002C"/>
		</linearGradient>
		<path class="st9" d="M384.72,561.18c-2.77,0.93-4.36,1.42-4.78,1.47c-0.42,0.05-0.85-0.14-1.28-0.56
			c-3.89-3.83-7.8-7.66-11.72-11.5c-6.22-6.19-9.5-9.78-9.83-10.77c-0.55-1.62-1.31-4.07-2.29-7.36s-1.75-5.74-2.29-7.36
			c-0.26-0.76-0.18-1.21,0.23-1.35c1.23-0.41,3.11-0.99,5.65-1.73c2.54-0.74,4.43-1.32,5.68-1.74c0.51-0.17,0.84-0.04,0.99,0.39
			c0.56,1.66,1.28,4.2,2.17,7.61c0.89,3.41,1.61,5.95,2.17,7.61c0.43,1.27,4.04,5.11,10.83,11.52c0.44-2.41,0.89-5.33,1.33-8.77
			c0.59-4.63,0.73-7.39,0.42-8.3c-0.5-1.5-1.28-3.74-2.34-6.73c-1.05-2.99-1.83-5.23-2.34-6.73c-0.19-0.55-0.2-0.89-0.03-1.02
			l0.98-0.33c1.13-0.38,2.82-1.01,5.06-1.89c2.25-0.88,3.94-1.51,5.07-1.89c0.62-0.21,1.01-0.06,1.17,0.43
			c0.53,1.58,1.31,3.97,2.33,7.18c1.02,3.21,1.8,5.61,2.34,7.21c0.43,1.27-0.02,6.63-1.33,16.07c-0.62,3.45-1.45,8.62-2.49,15.5
			c-0.05,0.52-0.11,0.82-0.16,0.89s-0.3,0.21-0.74,0.4C388.52,559.85,386.91,560.44,384.72,561.18z"/>
		<linearGradient id="SVGID_9_" gradientUnits="userSpaceOnUse" x1="391.1469" y1="523.0536" x2="440.443" y2="523.0536">
			<stop  offset="0" style="stop-color:#B91845"/>
			<stop  offset="1" style="stop-color:#78002C"/>
		</linearGradient>
		<path class="st10" d="M437.11,525.72c0.44,0.82,1.09,2.41,1.95,4.77c0.94,2.57,1.4,4.15,1.38,4.75c-0.03,0.48-0.25,0.84-0.65,1.05
			c-0.17,0.09-0.47,0.22-0.9,0.38c-1.49,0.56-5.6,2.65-12.32,6.28c-1.47,0.79-3.65,1.96-6.56,3.5c-2.91,1.54-5.08,2.71-6.53,3.49
			c-0.63,0.34-1.09,0.23-1.39-0.32c-1.15-2.13-2.76-5.4-4.83-9.8c-2.07-4.4-3.68-7.67-4.83-9.8c-1.17-2.17-3.47-6.16-6.9-11.95
			c-0.88-1.49-2.21-3.71-4-6.66l-0.24-0.38c-0.27-0.42-0.15-0.76,0.36-1.04c1.41-0.76,3.55-1.87,6.42-3.32
			c2.87-1.45,5.01-2.56,6.42-3.32c1.39-0.75,3.46-1.92,6.22-3.51c2.76-1.59,4.83-2.76,6.22-3.51c0.99-0.53,1.76-0.47,2.32,0.19
			c0.33,0.39,1.2,1.64,2.59,3.75s2.22,3.4,2.48,3.88c0.22,0.4,0.13,0.7-0.25,0.91c-0.11,0.06-0.32,0.16-0.62,0.29
			c-5.29,2.32-9.96,4.56-13.99,6.74c-1.01,0.54-1.5,1.12-1.47,1.72c0.03,0.28,0.38,1.04,1.04,2.28c0.7,1.29,1.35,2.05,1.96,2.26
			c0.52,0.19,1.24,0.03,2.15-0.46c0.19-0.1,0.55-0.32,1.09-0.64c0.54-0.33,0.99-0.59,1.35-0.78c2.4-1.3,4.79-2.67,7.18-4.13
			c0.2-0.13,0.7-0.46,1.49-0.99c0.61-0.42,1.1-0.74,1.48-0.95c0.46-0.25,0.8-0.15,1.04,0.29c-0.22-0.4,0.4,1.15,1.85,4.65
			c0.67,1.61,1.42,3.17,2.24,4.69c0.21,0.38,0.03,0.72-0.52,1.02l-2.72,1.1c-1.15,0.47-3.65,1.75-7.52,3.84l-3.03,1.63
			c-0.78,0.42-1.14,0.86-1.06,1.31c0.03,0.11,0.34,0.7,0.93,1.79c0.78,1.45,1.38,2.33,1.8,2.64c0.71,0.55,2.17,0.32,4.35-0.69
			c-0.04,0.02,1.35-0.73,4.17-2.25c1.01-0.54,2.46-1.44,4.35-2.7c1.89-1.25,3.33-2.15,4.32-2.68
			C436.34,524.8,436.74,525.03,437.11,525.72z"/>
	</g>
</g>
</svg>
